<svg width="26" height="26" viewBox="0 0 26 26" fill="none" xmlns="http://www.w3.org/2000/svg">
<path d="M10.8985 9.38471C10.7632 9.0941 10.4063 8.93942 10.0653 9.02223L8.51853 9.39721C8.21269 9.47221 8 9.71907 8 10.0003C8 13.8658 11.526 17 15.8747 17C16.191 17 16.4688 16.8109 16.5531 16.5391L16.975 15.1641C17.0682 14.861 16.8941 14.5439 16.5672 14.4236L14.8798 13.7986C14.5933 13.6923 14.2611 13.7658 14.0659 13.9798L13.3558 14.7501C12.1184 14.2298 11.1165 13.3392 10.5311 12.2393L11.3977 11.6096C11.6385 11.4346 11.7211 11.1409 11.6016 10.8862L10.8985 9.38627V9.38471Z" fill="black"/>
<path d="M16.0406 17.2793L8.7207 9.95938C8.1082 10.8152 7.75 11.8652 7.75 13C7.75 15.8984 10.1016 18.25 13 18.25C14.1348 18.25 15.1848 17.8918 16.0406 17.2793ZM17.2793 16.0406C17.8918 15.1848 18.25 14.1348 18.25 13C18.25 10.1016 15.8984 7.75 13 7.75C11.8652 7.75 10.8152 8.1082 9.95938 8.7207L17.2793 16.0406ZM6 13C6 11.1435 6.7375 9.36301 8.05025 8.05025C9.36301 6.7375 11.1435 6 13 6C14.8565 6 16.637 6.7375 17.9497 8.05025C19.2625 9.36301 20 11.1435 20 13C20 14.8565 19.2625 16.637 17.9497 17.9497C16.637 19.2625 14.8565 20 13 20C11.1435 20 9.36301 19.2625 8.05025 17.9497C6.7375 16.637 6 14.8565 6 13Z" fill="#FF6347"/>
<rect x="0.5" y="0.5" width="25" height="25" rx="2.5" stroke="#FF6347"/>
</svg>
